<?xml version="1.0" encoding="UTF-8"?>
<svg xmlns="http://www.w3.org/2000/svg" xmlns:xlink="http://www.w3.org/1999/xlink" viewBox="0 0 90 90" width="90px" height="90px">
<g id="surface91246382">
<path style=" stroke:none;fill-rule:nonzero;fill:rgb(100%,100%,100%);fill-opacity:1;" d="M 18 12 C 14.683594 12 12 14.683594 12 18 L 12 72 C 12 75.316406 14.683594 78 18 78 L 72 78 C 75.316406 78 78 75.316406 78 72 L 78 18 C 78 14.683594 75.316406 12 72 12 Z M 52.5 33 L 60.171875 33 C 60.996094 33 61.671875 33.671875 61.671875 34.5 C 61.671875 35.328125 60.996094 36 60.171875 36 L 52.5 36 C 51.671875 36 51 35.328125 51 34.5 C 51 33.671875 51.671875 33 52.5 33 Z M 26.761719 34.15625 L 35.117188 34.15625 C 40.046875 34.15625 42.992188 36.566406 42.992188 40.492188 C 42.992188 43.1875 40.996094 45.539062 38.390625 45.925781 L 38.390625 46.242188 C 41.757812 46.488281 44.203125 49.023438 44.203125 52.300781 C 44.207031 56.753906 40.839844 59.578125 35.414062 59.578125 L 26.761719 59.578125 C 25.234375 59.578125 24 58.34375 24 56.816406 L 24 36.914062 C 24 35.390625 25.234375 34.152344 26.761719 34.152344 Z M 29.320312 38.21875 L 29.320312 44.6875 L 33.316406 44.6875 C 36.191406 44.691406 37.757812 43.511719 37.757812 41.46875 C 37.757812 39.441406 36.300781 38.21875 33.761719 38.21875 Z M 56.890625 39.71875 C 62.617188 39.71875 65.996094 43.371094 65.996094 49.535156 L 65.996094 51.097656 L 52.664062 51.097656 L 52.664062 51.363281 C 52.734375 54.253906 54.425781 56.050781 57.105469 56.050781 C 59.128906 56.050781 60.519531 55.332031 61.066406 54.046875 L 65.84375 54.046875 C 65.066406 57.710938 61.71875 60 56.960938 60 C 51.039062 60 47.554688 56.261719 47.554688 49.957031 C 47.554688 43.632812 51.109375 39.71875 56.890625 39.71875 Z M 56.910156 43.652344 C 54.53125 43.652344 52.855469 45.304688 52.683594 47.824219 L 60.960938 47.824219 C 60.851562 45.253906 59.304688 43.652344 56.910156 43.652344 Z M 29.320312 48.285156 L 29.320312 55.511719 L 34.0625 55.511719 C 37.125 55.511719 38.785156 54.21875 38.785156 51.84375 C 38.785156 49.515625 37.074219 48.285156 33.9375 48.285156 Z M 29.320312 48.285156 "/>
</g>
</svg>
